<svg width="234" height="140" viewBox="0 0 234 140" fill="none" xmlns="http://www.w3.org/2000/svg">
<g clip-path="url(#clip0)">
<path d="M102.135 1.63438L83.2957 78.5579L201.397 117.12L220.236 40.1962L102.135 1.63438Z" fill="#C0E3E7"/>
<path d="M104.175 5.9811C104.716 5.9811 105.153 5.47546 105.153 4.85173C105.153 4.22799 104.716 3.72235 104.175 3.72235C103.635 3.72235 103.197 4.22799 103.197 4.85173C103.197 5.47546 103.635 5.9811 104.175 5.9811Z" fill="#45AB51"/>
<path d="M107.187 6.96453C107.727 6.96453 108.165 6.45889 108.165 5.83515C108.165 5.21142 107.727 4.70578 107.187 4.70578C106.647 4.70578 106.209 5.21142 106.209 5.83515C106.209 6.45889 106.647 6.96453 107.187 6.96453Z" fill="#45AB51"/>
<path d="M110.199 7.94796C110.739 7.94796 111.177 7.44232 111.177 6.81858C111.177 6.19485 110.739 5.68921 110.199 5.68921C109.659 5.68921 109.221 6.19485 109.221 6.81858C109.221 7.44232 109.659 7.94796 110.199 7.94796Z" fill="#45AB51"/>
<path d="M164.813 50.4451C163.232 50.1 161.606 50.1444 160.04 50.5752C160.496 48.7683 160.611 46.8697 160.378 45.0072C158.766 45.6808 157.307 46.7676 156.112 48.1858C155.736 46.2546 154.987 44.4469 153.919 42.8984C152.876 44.344 152.113 46.031 151.681 47.8458C150.543 46.5324 149.178 45.5112 147.675 44.8492C147.675 44.8492 146.962 49.0322 148.677 52.4646C150.204 55.5195 153.136 56.9491 153.763 57.2268L153.778 57.2471L153.786 57.2368C153.849 57.2647 153.885 57.2789 153.885 57.2789C153.885 57.2789 153.898 57.1985 153.917 57.0552C153.928 57.0391 153.94 57.0227 153.952 57.0047C153.954 57.0276 153.957 57.0484 153.959 57.0689C153.91 57.2023 153.885 57.2789 153.885 57.2789C153.885 57.2789 153.922 57.2883 153.989 57.3031L153.991 57.3166L154.012 57.3082C154.672 57.4507 157.819 58.0061 160.505 56.3265C163.523 54.4394 164.813 50.4451 164.813 50.4451Z" fill="#49B575"/>
<path d="M158.96 39.76C160.364 39.76 161.503 38.4454 161.503 36.8236C161.503 35.2019 160.364 33.8873 158.96 33.8873C157.555 33.8873 156.417 35.2019 156.417 36.8236C156.417 38.4454 157.555 39.76 158.96 39.76Z" fill="#49B575"/>
<path d="M190.892 74.9482L114.465 49.994L113.995 51.9139L190.421 76.8681L190.892 74.9482Z" fill="#49B575"/>
<path d="M132.453 66.1955L119.276 61.8931L115.55 77.1077L128.727 81.4101L132.453 66.1955Z" fill="#49B575"/>
<path d="M156.925 74.1858L143.748 69.8834L140.022 85.098L153.199 89.4004L156.925 74.1858Z" fill="#49B575"/>
<path d="M181.396 82.1761L168.219 77.8736L164.493 93.0882L177.67 97.3907L181.396 82.1761Z" fill="#49B575"/>
<path d="M126.288 83.8999L116.499 80.7038L116.18 82.0079L125.968 85.204L126.288 83.8999Z" fill="#49B575"/>
<path d="M150.759 91.8902L140.971 88.6941L140.651 89.9982L150.44 93.1943L150.759 91.8902Z" fill="#49B575"/>
<path d="M175.231 99.8804L165.442 96.6843L165.123 97.9884L174.911 101.185L175.231 99.8804Z" fill="#49B575"/>
<path d="M66.7566 108.327C102.912 108.327 132.222 107.076 132.222 105.532C132.222 103.989 102.912 102.738 66.7566 102.738C30.6009 102.738 1.29095 103.989 1.29095 105.532C1.29095 107.076 30.6009 108.327 66.7566 108.327Z" fill="#D0CDE1"/>
<path d="M183.057 140C211.192 140 234 138.749 234 137.205C234 135.662 211.192 134.411 183.057 134.411C154.921 134.411 132.113 135.662 132.113 137.205C132.113 138.749 154.921 140 183.057 140Z" fill="#D0CDE1"/>
<path d="M158.071 115.513H172.768V122.61H164.217V129.707H172.769V136.803H158.071V115.513ZM175.708 115.513H190.405V121.684H181.854V122.919H190.405V137.112H175.708V130.632H184.259V129.398H175.707V115.513H175.708ZM193.345 115.513H208.042V121.684H199.491V122.919H208.042V137.112H193.345V130.632H201.896V129.398H193.345V115.513H193.345Z" fill="#3F3D56"/>
<path d="M29.6186 83.0418H35.6816V89.9583H41.228V83.0418H47.2914V103.987H41.2283V96.9732H35.682V103.987H29.619V83.0418H29.6186ZM55.2641 89.9877H49.9273V83.0418H66.6683V89.9877H61.3282V103.987H55.2652V89.9877H55.2641ZM69.3252 83.0418H75.6471L79.5359 90.4013L83.421 83.0418H89.7455V103.987H83.7072V93.6053L79.5359 101.052H79.4313L75.2574 93.6053V103.987H69.3252V83.0418ZM92.7628 83.0418H98.8277V97.0637H107.354V103.987H92.7625V83.0418H92.7628Z" fill="#3F3D56"/>
<path d="M18.9099 97.4387L18.4125 103.951L22.3934 103.568V98.0133L18.9099 97.4387Z" fill="#FFB8B8"/>
<path d="M15.2606 97.4387L15.7583 103.951L11.7773 103.568V98.0133L15.2606 97.4387Z" fill="#FFB8B8"/>
<path d="M25.7109 47.4498C25.7109 47.4498 27.0379 56.6432 27.0379 57.9839C27.0379 59.3246 26.5403 67.9434 25.7109 69.6671C24.8815 71.3909 24.7157 72.157 25.0474 72.9231C25.3792 73.6892 25.2133 73.4977 25.0474 74.0723C24.8815 74.6468 24.5498 74.4553 25.0474 75.2214C25.2506 75.5587 25.3595 75.9597 25.3595 76.3706C25.3595 76.7815 25.2506 77.1825 25.0474 77.5198C24.7157 78.0944 25.7109 93.6082 24.3839 94.7573C23.0569 95.9065 22.7251 99.7371 22.7251 99.7371L18.4123 99.1625V94.9489C18.4123 94.9489 17.4171 91.8844 18.0806 89.9691C18.7441 88.0538 19.0758 77.9028 19.0758 77.9028C19.0758 77.9028 18.91 76.9452 19.0758 76.3706C19.2417 75.796 19.0758 75.413 18.7441 75.2214C18.4123 75.0299 18.2465 74.2638 18.2465 74.2638L17.7488 60.2822L15.7583 74.0722C15.7583 74.0722 17.7488 92.842 15.7583 95.3319V99.7371H11.4455L12.109 94.9489C12.109 94.9489 10.782 90.5437 11.4455 89.5861C12.109 88.6284 9.45497 73.3061 9.78672 72.7316C10.1185 72.157 9.9526 71.9654 9.78672 71.5824C9.62085 71.1993 9.12321 70.8163 9.28909 70.4332C9.45497 70.0502 9.28909 69.284 9.28909 69.284C9.28909 69.284 6.13743 51.2804 7.63032 49.5566C9.12321 47.8328 25.7109 47.4498 25.7109 47.4498Z" fill="#2F2E41"/>
<path d="M19.4076 101.461C19.4076 101.461 19.7394 99.624 22.3934 100.255C22.3934 100.255 23.0569 101.844 23.0569 102.61C23.0569 103.376 23.7204 108.547 23.7204 108.547C23.7204 108.547 26.3745 113.719 23.0569 113.719C19.7394 113.719 18.5783 112.378 18.4124 111.037C18.2465 109.697 18.5783 109.313 17.9147 108.739C17.2512 108.164 16.9195 108.164 17.0854 107.398C17.2512 106.632 17.583 102.802 17.583 102.802C17.583 102.802 17.7489 99.9286 18.6612 100.695L19.5735 101.461" fill="#2F2E41"/>
<path d="M14.7631 101.461C14.7631 101.461 14.4313 99.624 11.7773 100.255C11.7773 100.255 11.1138 101.844 11.1138 102.61C11.1138 103.376 10.4503 108.547 10.4503 108.547C10.4503 108.547 7.79624 113.719 11.1138 113.719C14.4313 113.719 15.5925 112.378 15.7583 111.037C15.9242 109.697 15.5925 109.313 16.256 108.739C16.9195 108.164 17.2512 108.164 17.0854 107.398C16.9195 106.632 16.5877 102.802 16.5877 102.802C16.5877 102.802 16.4218 99.9286 15.5095 100.695L14.5972 101.461" fill="#2F2E41"/>
<path d="M19.5735 12.2086C22.047 12.2086 24.0522 9.89331 24.0522 7.0373C24.0522 4.18128 22.047 1.86603 19.5735 1.86603C17.1 1.86603 15.0948 4.18128 15.0948 7.0373C15.0948 9.89331 17.1 12.2086 19.5735 12.2086Z" fill="#FFB8B8"/>
<path d="M15.9242 7.80341C15.9242 7.80341 14.0995 16.0391 13.7678 16.2307C13.436 16.4222 21.3981 17.1883 21.3981 17.1883C21.3981 17.1883 19.4076 10.1017 21.3981 8.95258L15.9242 7.80341Z" fill="#FFB8B8"/>
<path d="M14.7589 12.8222L14.7587 12.8212L9.28912 17.1883L10.2844 51.4719C10.2844 51.4719 17.583 50.5143 19.2417 50.7058C20.9005 50.8973 26.2086 48.982 26.2086 48.982L23.8836 16.7672C23.8381 16.1377 23.5992 15.5478 23.2099 15.104C22.8206 14.6602 22.3067 14.3918 21.7609 14.3474L20.7647 14.2663C20.7647 14.2663 19.7695 17.1113 16.7753 15.6435C16.2704 15.39 15.8246 15.0022 15.4742 14.5119C15.1238 14.0216 14.8787 13.4427 14.7589 12.8222Z" fill="#C0E3E7"/>
<path d="M14.8912 12.5095L8.12797 16.2306L6.80095 38.2564C6.80095 38.2564 4.14692 51.4719 6.30332 55.3024C8.45972 59.133 12.109 59.5161 12.109 59.5161C12.109 59.5161 16.9194 37.4903 15.5924 30.0207C14.2654 22.5511 14.8912 12.5095 14.8912 12.5095Z" fill="#49B575"/>
<path d="M2.15646 45.726V48.599C2.15646 48.599 1.1612 54.9194 4.31286 54.7279C7.46452 54.5363 5.97163 47.8329 5.97163 47.8329L4.97636 45.726H2.15646Z" fill="#FFB8B8"/>
<path d="M31.3508 51.4719L31.019 54.7279C31.019 54.7279 32.6778 61.2399 29.5261 61.4314C26.3744 61.6229 28.6621 54.7679 28.6621 54.7679L29.692 51.0888L31.3508 51.4719Z" fill="#FFB8B8"/>
<path d="M20.6649 13.5969C23.6874 14.4565 26.4882 16.1375 28.8339 18.5001L28.8626 18.529L26.5403 32.7021L26.2086 37.8734C26.2086 37.8734 32.346 63.1551 25.2133 59.5161C25.2133 59.5161 19.0759 37.4903 19.9053 27.3393C20.7346 17.1883 20.6649 13.5969 20.6649 13.5969Z" fill="#49B575"/>
<path d="M26.7062 18.3375C26.8721 18.1459 28.8626 18.6036 28.8626 18.6036C28.8626 18.6036 32.5119 33.4682 32.5119 35.9581C32.5119 38.448 33.0096 52.6211 33.0096 52.6211L28.6309 53.1307L25.0868 33.4385L26.7062 18.3375Z" fill="#49B575"/>
<path d="M9.28911 16.2307H8.12797C8.12797 16.2307 4.81043 17.7629 4.64456 19.4866C4.47868 21.2104 0 38.6395 0 38.6395L1.16114 47.4498L5.47394 46.6837L6.30333 36.9157L10.6161 26.1901L9.28911 16.2307Z" fill="#49B575"/>
<path d="M18.7034 8.48055L18.8751 7.09841C18.9152 6.77626 19.0785 6.35268 19.3499 6.44029C19.5808 6.51482 20.0838 6.74302 20.168 6.67413C20.4834 6.41616 20.9607 6.86724 21.2923 6.63807C21.4313 6.54206 21.5219 6.33636 21.6834 6.32263C21.7918 6.33062 21.8939 6.38403 21.9705 6.47281C22.1858 6.68898 22.4395 6.8481 22.7137 6.93898C22.8513 6.98224 22.9964 6.98222 23.134 6.93892C23.2716 6.89563 23.3966 6.81063 23.4961 6.69274C23.5313 6.62994 23.5787 6.5775 23.6345 6.5396C23.7 6.5178 23.7699 6.52151 23.8335 6.55017L24.6808 6.81656C24.8055 6.29481 24.8311 5.74814 24.7559 5.21391C24.6807 4.67969 24.5065 4.17051 24.2452 3.72117C23.9014 3.18238 23.4847 2.71112 23.011 2.32552C22.4862 1.86455 21.9446 1.43097 21.3863 1.02479C20.7943 0.54119 20.1224 0.203652 19.4124 0.0332454C18.6978 -0.0920493 17.8977 0.132115 17.4482 0.785678C17.2367 0.608998 17.0778 0.361126 16.9932 0.0760512C16.9428 0.128996 16.9031 0.194071 16.8769 0.266679C16.8506 0.339287 16.8385 0.417658 16.8414 0.496263C16.8443 0.574868 16.862 0.651788 16.8935 0.721595C16.9249 0.791401 16.9692 0.852394 17.0233 0.900263L16.3066 0.371842C16.1051 0.616089 16.4988 1.05898 16.3271 1.33191C16.2752 1.39941 16.2086 1.44963 16.1342 1.47736C15.745 1.65248 15.3884 1.91167 15.0833 2.24104C14.6971 2.7491 14.4143 3.35057 14.2557 4.00131C13.8287 5.41593 13.5183 7.03823 14.1251 8.36242C14.1938 8.51254 15.1018 10.9904 15.2228 11.087C15.6317 11.4136 15.3655 10.6231 15.6586 11.087C15.8883 11.4507 15.8453 10.0586 16.1868 10.3642C16.3207 10.4748 16.4795 10.5382 16.6439 10.5467C16.8084 10.5553 16.9715 10.5086 17.1134 10.4123C17.255 10.2989 17.2094 9.66936 17.133 9.09124C17.1183 8.98113 17.1274 8.86856 17.1592 8.76339C17.191 8.65823 17.2447 8.56368 17.3155 8.48805C17.3864 8.41241 17.4722 8.358 17.5655 8.32957C17.6588 8.30114 17.7567 8.29957 17.8506 8.32499C18.2759 8.44051 18.6961 8.53922 18.7034 8.48055Z" fill="#2F2E41"/>
<path opacity="0.2" d="M27.121 35.6707L28.9455 53.0999H27.7844L27.121 35.6707Z" fill="black"/>
<path opacity="0.2" d="M7.87918 28.9672L6.95667 35.6707L8.70856 28.9672H8.21088H7.87918Z" fill="black"/>
</g>
<defs>
<clipPath id="clip0">
<rect width="234" height="140" fill="white"/>
</clipPath>
</defs>
</svg>
