<svg width="365" height="350" viewBox="0 0 365 350" fill="none" xmlns="http://www.w3.org/2000/svg">
<path d="M251.592 186.38V275.263L266.444 299.492L267.575 301.335H326.179L327.363 186.38H251.592Z" fill="#2F2E41"/>
<path opacity="0.1" d="M251.592 186.38V275.263L266.444 299.492L267.355 186.38H251.592Z" fill="black"/>
<path d="M110.113 184.01V272.892L95.26 297.122L94.1295 298.965H35.5248L34.3409 184.01H110.113Z" fill="#2F2E41"/>
<path opacity="0.1" d="M110.112 184.01V272.892L95.2599 297.122L94.348 184.01H110.112Z" fill="black"/>
<path d="M345.122 182.232V187.565H26.6454V179.862L56.2434 164.456H319.075L345.122 182.232Z" fill="#2F2E41"/>
<path opacity="0.1" d="M345.122 182.232V187.565H26.6454V179.862L345.122 182.232Z" fill="black"/>
<path opacity="0.1" d="M72.2265 208.897H58.0194L52.0999 204.749H78.7381L72.2265 208.897Z" fill="black"/>
<path opacity="0.1" d="M72.2265 226.081H58.0194L52.0999 221.933H78.7381L72.2265 226.081Z" fill="black"/>
<path opacity="0.1" d="M72.2265 250.376H58.0194L52.0999 246.228H78.7381L72.2265 250.376Z" fill="black"/>
<path opacity="0.1" d="M72.2265 274.67H58.0194L52.0999 270.522H78.7381L72.2265 274.67Z" fill="black"/>
<path opacity="0.1" d="M289.477 211.267H303.684L309.604 207.12H282.966L289.477 211.267Z" fill="black"/>
<path opacity="0.1" d="M289.477 228.451H303.684L309.604 224.304H282.966L289.477 228.451Z" fill="black"/>
<path opacity="0.1" d="M289.477 252.746H303.684L309.604 248.598H282.966L289.477 252.746Z" fill="black"/>
<path opacity="0.1" d="M289.477 277.04H303.684L309.604 272.892H282.966L289.477 277.04Z" fill="black"/>
<path d="M239.35 65.0929C239.769 65.0929 240.109 64.7526 240.109 64.3327C240.109 63.9129 239.769 63.5725 239.35 63.5725C238.93 63.5725 238.59 63.9129 238.59 64.3327C238.59 64.7526 238.93 65.0929 239.35 65.0929Z" fill="#F2F2F2"/>
<path d="M183.172 82.0929C192.106 82.0929 199.348 74.8434 199.348 65.9007C199.348 56.958 192.106 49.7085 183.172 49.7085C174.238 49.7085 166.996 56.958 166.996 65.9007C166.996 74.8434 174.238 82.0929 183.172 82.0929Z" fill="#FFB9B9"/>
<path d="M171.253 73.9968V99.5635H197.645C197.645 99.5635 194.24 78.2579 195.943 71.8663L171.253 73.9968Z" fill="#FFB9B9"/>
<path d="M223.612 108.512C223.612 108.512 198.497 96.1546 198.497 95.3024C198.497 94.4502 195.942 88.9107 194.24 88.9107C192.537 88.9107 178.064 84.2235 169.975 91.0413L169.124 96.5807L138.049 117.034L146.563 148.14C146.563 148.14 152.097 154.106 150.394 158.367C148.691 162.628 151.671 184.36 151.671 184.36L218.504 182.229V153.253C218.504 153.253 220.632 146.436 221.909 144.305C223.187 142.175 221.909 135.783 221.909 135.783L232.126 123C232.126 123 230.849 111.068 223.612 108.512Z" fill="#C0E3E7"/>
<path opacity="0.1" d="M139.113 127.474L141.029 117.034C141.029 117.034 129.961 165.185 131.238 170.724C132.515 176.263 141.88 184.786 143.157 185.212C144.434 185.638 156.353 148.566 156.353 148.566L139.113 127.474Z" fill="black"/>
<path d="M145.286 115.756L138.049 117.034C138.049 117.034 126.981 165.185 128.258 170.724C129.535 176.263 138.9 184.786 140.177 185.212C141.454 185.638 153.374 148.566 153.374 148.566L145.286 115.756Z" fill="#C0E3E7"/>
<path opacity="0.1" d="M225.954 130.03L229.572 123C229.572 123 234.68 171.15 231.275 175.837C227.869 180.525 214.398 182.278 214.398 182.278L214.247 147.288L225.954 130.03Z" fill="black"/>
<path d="M226.592 117.46L232.126 123C232.126 123 237.234 171.15 233.829 175.837C230.423 180.525 216.952 182.279 216.952 182.279L216.801 147.288L226.592 117.46Z" fill="#C0E3E7"/>
<path d="M144.009 190.751C144.009 190.751 131.664 186.064 129.535 195.012C127.407 203.961 134.643 244.015 134.643 244.015C134.643 244.015 139.326 274.269 142.306 275.121C145.286 275.973 158.482 276.4 160.61 272.565C162.739 268.73 154.225 229.527 154.225 229.527L203.605 228.675C203.605 228.675 200.625 262.764 198.922 265.747C197.22 268.73 197.22 278.956 198.922 278.956C200.625 278.956 219.355 278.104 220.633 275.547C221.91 272.991 229.146 215.466 229.146 215.466C229.146 215.466 235.106 195.438 228.295 196.717C221.484 197.995 144.009 190.751 144.009 190.751Z" fill="#3F3D56"/>
<path d="M216.801 273.843C216.801 273.843 221.058 270.86 223.187 273.843C225.315 276.826 226.166 280.234 216.801 285.348C207.436 290.461 200.199 289.183 200.199 288.331V275.973L216.801 273.843Z" fill="#2F2E41"/>
<path d="M143.157 272.565C143.157 272.565 138.9 269.582 136.772 272.565C134.643 275.547 133.792 278.956 143.157 284.07C152.522 289.183 159.759 287.905 159.759 287.052V274.695L143.157 272.565Z" fill="#2F2E41"/>
<path d="M183.277 45.4839C181.666 45.4279 180.057 45.6574 178.526 46.1618C177.338 46.6396 176.204 47.2404 175.141 47.9543L167.999 52.3997C167.393 52.6624 166.878 53.0989 166.519 53.6542C166.161 54.2095 165.974 54.8587 165.984 55.5199L165.091 62.2098C164.866 63.8981 164.658 65.7035 165.413 67.2299C166.044 68.504 167.245 69.3758 168.233 70.3969C169.815 72.0378 170.879 74.1079 171.294 76.3497C171.805 79.1429 171.478 82.5065 173.686 84.289C174.882 85.2541 176.512 85.4367 178.045 85.5264C182.238 85.7715 186.445 85.6094 190.607 85.0425C191.268 84.9929 191.913 84.8119 192.505 84.5101C193.255 84.0657 193.728 83.2811 194.17 82.5282C195.764 79.8104 197.408 76.9191 197.391 73.7672C197.382 72.2079 196.984 70.5331 197.732 69.1653C198.127 68.5839 198.556 68.0263 199.016 67.4951C199.942 66.1926 200.123 64.5189 200.274 62.9272C200.756 57.8432 200.252 53.9742 196.509 50.393C193.014 47.0499 188.042 45.5147 183.277 45.4839Z" fill="#2F2E41"/>
<path d="M143.541 241.092L129.334 313.383H136.437L150.053 242.277L143.541 241.092Z" fill="#2F2E41"/>
<path d="M189.122 247.018L198.002 329.975H203.922L198.594 244.647L189.122 247.018Z" fill="#2F2E41"/>
<path d="M213.393 244.647L225.824 299.755H231.743L219.904 243.462L213.393 244.647Z" fill="#2F2E41"/>
<path d="M166.036 244.647L164.26 288.496H168.996L172.547 244.647H166.036Z" fill="#2F2E41"/>
<path d="M133.478 233.389C133.478 233.389 124.006 169.986 150.645 168.208C177.283 166.431 215.169 168.208 215.169 168.208C215.169 168.208 237.071 166.431 230.56 233.389C230.56 233.389 236.479 252.943 183.203 251.165C129.926 249.388 133.478 233.389 133.478 233.389Z" fill="#49B575"/>
<path d="M97.6999 125.443H61.3268V168.129H97.6999V125.443Z" fill="#3F3D56"/>
<path d="M305.662 125.443H269.289V168.129H305.662V125.443Z" fill="#3F3D56"/>
<path d="M92.0558 132.066H66.9709V161.505H92.0558V132.066Z" fill="#F2F2F2"/>
<path d="M300.018 132.066H274.933V161.505H300.018V132.066Z" fill="#F2F2F2"/>
<path d="M73.3461 153.806L71.9791 138.457H86.9989L85.6301 153.803L79.4799 155.51L73.3461 153.806Z" fill="#E44F26"/>
<path d="M79.4889 154.206L84.459 152.826L85.6282 139.712H79.4889V154.206Z" fill="#F1662A"/>
<path d="M79.489 145.405H77.0009L76.8294 143.477H79.489V141.594H74.7744L74.8194 142.1L75.2812 147.287H79.489V145.405Z" fill="#EBEBEB"/>
<path d="M79.489 150.293L79.4805 150.296L77.3866 149.73L77.2528 148.229H75.3651L75.6285 151.184L79.4805 152.254L79.489 152.252V150.293Z" fill="#EBEBEB"/>
<path d="M79.4823 145.405V147.287H81.7976L81.5798 149.729L79.4823 150.295V152.254L83.3373 151.184L83.3653 150.866L83.8069 145.91L83.8532 145.405H79.4823Z" fill="white"/>
<path d="M79.4823 141.594V143.477H84.0241L84.0618 143.054L84.1476 142.1L84.1926 141.594H79.4823Z" fill="white"/>
<g clip-path="url(#clip0)">
<path d="M288.514 137.239L279.022 146.933L281.96 149.933L294.389 137.239L288.514 137.239Z" fill="#47C5FB"/>
<path d="M288.448 146.178L283.366 151.368L286.315 154.425L289.247 151.43L294.389 146.178H288.448Z" fill="#47C5FB"/>
<path d="M286.314 154.425L288.547 156.705H294.389L289.247 151.43L286.314 154.425Z" fill="#00569E"/>
<path d="M283.332 151.402L286.27 148.402L289.247 151.43L286.314 154.425L283.332 151.402Z" fill="#00B5F8"/>
<path d="M286.314 154.425L288.756 153.597L288.999 151.684L286.314 154.425Z" fill="url(#paint0_linear)" fill-opacity="0.8"/>
</g>
<defs>
<linearGradient id="paint0_linear" x1="286.42" y1="152.423" x2="288.361" y2="153.108" gradientUnits="userSpaceOnUse">
<stop/>
<stop offset="1" stop-opacity="0"/>
</linearGradient>
<clipPath id="clip0">
<rect width="15.4111" height="19.4896" fill="white" transform="translate(279.022 137.239)"/>
</clipPath>
</defs>
</svg>
