<svg width="212" height="140" viewBox="0 0 212 140" fill="none" xmlns="http://www.w3.org/2000/svg">
<path d="M154.993 140C149.131 139.083 143.495 138.303 138.085 137.661L140.168 133.498C139.445 133.257 136.312 135.665 136.312 135.665L138.963 123.624C135.347 124.106 133.66 136.388 133.66 136.388L129.562 132.294L131.579 136.929C115.024 135.191 100.738 134.649 88.7297 134.773L90.5128 131.21C89.7897 130.969 86.6561 133.377 86.6561 133.377L89.3076 121.337C85.6919 121.818 84.0046 134.1 84.0046 134.1L79.9068 130.006L82.0433 134.915C73.8174 135.154 65.6093 135.814 57.4512 136.894C59.2304 131.356 65.444 126.033 65.444 126.033C60.6664 127.517 58.1808 129.937 56.8943 132.179C56.6341 120.802 58.386 109.468 62.0694 98.6996C62.0694 98.6996 52.4276 120.373 53.8738 134.822L54.0573 137.389C45.6691 138.696 41.46 140 41.46 140H154.993Z" fill="#3F3D56"/>
<path d="M133.413 32.2119V48.0288C133.413 48.175 133.354 48.315 133.251 48.4184C133.147 48.5217 133.007 48.5799 132.861 48.5803H132.468V130.976C132.468 133.256 131.561 135.443 129.948 137.055C128.334 138.668 126.145 139.573 123.863 139.574H72.3295C71.1996 139.574 70.0807 139.351 69.0369 138.919C67.993 138.487 67.0446 137.853 66.2457 137.055C65.4468 136.257 64.8132 135.309 64.381 134.266C63.9487 133.223 63.7263 132.105 63.7266 130.976V51.4701H63.4421C63.3389 51.4703 63.2399 51.4296 63.1667 51.3569C63.0935 51.2842 63.0521 51.1855 63.0516 51.0824V42.0806C63.0516 42.0294 63.0617 41.9787 63.0813 41.9313C63.101 41.884 63.1297 41.841 63.166 41.8047C63.2022 41.7685 63.2453 41.7398 63.2927 41.7202C63.3401 41.7006 63.3908 41.6905 63.4421 41.6905H63.7266V38.2998H63.4397C63.3314 38.2994 63.2276 38.256 63.1513 38.1793C63.0749 38.1025 63.0321 37.9986 63.0323 37.8904V29.0114C63.0326 28.9036 63.0756 28.8002 63.152 28.7239C63.2283 28.6477 63.3317 28.6047 63.4397 28.6044H63.7265V23.9759H63.4349C63.3874 23.976 63.3403 23.9667 63.2964 23.9485C63.2525 23.9304 63.2127 23.9038 63.1791 23.8702C63.1455 23.8367 63.1189 23.7968 63.1007 23.753C63.0826 23.7091 63.0733 23.6621 63.0733 23.6147V18.7694C63.0731 18.6733 63.111 18.581 63.1788 18.5129C63.2466 18.4447 63.3387 18.4062 63.4349 18.4058H63.7265V8.59481C63.7266 6.31535 64.633 4.12927 66.2464 2.51745C67.8597 0.905631 70.0479 8.30241e-05 72.3295 0H123.863C126.145 -1.0305e-05 128.333 0.905431 129.947 2.5172C131.561 4.12898 132.467 6.3151 132.468 8.59481V31.6604H132.861C133.007 31.6608 133.147 31.719 133.251 31.8224C133.354 31.9257 133.413 32.0657 133.413 32.2119Z" fill="#3F3D56"/>
<path d="M100.579 4.4086H92.2051C91.8667 4.4086 91.5924 4.68266 91.5924 5.02073V5.74383C91.5924 6.0819 91.8667 6.35596 92.2051 6.35596H100.579C100.917 6.35596 101.192 6.0819 101.192 5.74383V5.02073C101.192 4.68266 100.917 4.4086 100.579 4.4086Z" fill="#E6E8EC"/>
<path d="M103.749 6.48684C104.359 6.48684 104.854 5.99232 104.854 5.38229C104.854 4.77226 104.359 4.27774 103.749 4.27774C103.138 4.27774 102.643 4.77226 102.643 5.38229C102.643 5.99232 103.138 6.48684 103.749 6.48684Z" fill="#E6E8EC"/>
<path d="M128.347 10.2951V131.689C128.348 132.479 128.177 133.259 127.846 133.975C127.514 134.692 127.031 135.328 126.429 135.839C125.441 136.68 124.185 137.142 122.888 137.141H73.5576C72.6799 137.143 71.8149 136.932 71.0363 136.527C70.8533 136.434 70.6762 136.329 70.5059 136.214C69.7645 135.715 69.1573 135.041 68.7374 134.252C68.3175 133.463 68.098 132.583 68.0979 131.689V10.2951C68.0979 9.57881 68.2391 8.8695 68.5134 8.20771C68.7878 7.54593 69.1899 6.94461 69.6969 6.4381C70.2039 5.93159 70.8058 5.52982 71.4682 5.25571C72.1306 4.98161 72.8406 4.84054 73.5576 4.84058H80.9408V5.78699C80.9408 6.97815 81.4145 8.12051 82.2575 8.96279C83.1006 9.80506 84.2441 10.2782 85.4363 10.2783H110.524C111.717 10.2783 112.86 9.80506 113.703 8.96279C114.546 8.12052 115.02 6.97815 115.02 5.78699V4.84058H122.888C123.605 4.84034 124.315 4.98127 124.977 5.2553C125.64 5.52934 126.242 5.93111 126.749 6.43765C127.256 6.9442 127.658 7.5456 127.932 8.20748C128.207 8.86936 128.348 9.57875 128.347 10.2951Z" fill="#C0E3E7"/>
<path opacity="0.3" d="M128.347 114.312V131.689C128.348 132.479 128.177 133.259 127.846 133.975C127.514 134.692 127.031 135.328 126.429 135.839C125.441 136.68 124.185 137.142 122.888 137.141H73.5576C72.6799 137.143 71.8149 136.932 71.0363 136.527C70.8533 136.434 70.6762 136.329 70.5059 136.214C69.7645 135.715 69.1573 135.041 68.7374 134.252C68.3175 133.463 68.098 132.583 68.0979 131.689V114.319C76.3697 106.891 87.0988 102.78 98.2212 102.779C109.344 102.778 120.074 106.885 128.347 114.312Z" fill="white"/>
<path opacity="0.3" d="M125.414 136.523C124.635 136.931 123.768 137.144 122.888 137.142H73.5576C72.6799 137.143 71.8149 136.932 71.0363 136.527C73.2695 131.162 77.0434 126.577 81.8819 123.351C86.7204 120.126 92.4067 118.404 98.2234 118.403C104.04 118.403 109.727 120.123 114.566 123.348C119.405 126.573 123.18 131.157 125.414 136.523Z" fill="white"/>
<path opacity="0.3" d="M114.678 136.814C114.206 137.061 113.682 137.19 113.149 137.188H83.2982C82.7671 137.189 82.2436 137.062 81.7725 136.817C83.1238 133.57 85.4075 130.795 88.3354 128.843C91.2633 126.892 94.7042 125.85 98.2241 125.849C101.744 125.849 105.185 126.89 108.113 128.842C111.042 130.793 113.326 133.567 114.678 136.814Z" fill="white"/>
<path d="M110.772 51.8363C105.823 51.8363 100.393 50.8949 96.1533 47.7183C90.2507 43.2956 82.9785 43.5316 77.9174 44.5086C74.5555 45.163 71.2925 46.2489 68.2094 47.7392L67.9865 47.3121C71.1072 45.8024 74.4102 44.702 77.8133 44.0381C82.9739 43.0403 90.3951 42.8018 96.4426 47.333C107.772 55.8218 128.058 48.1977 128.261 48.1199L128.434 48.5696C124.63 49.9243 120.695 50.8812 116.693 51.425C114.731 51.6925 112.753 51.8299 110.772 51.8363Z" fill="white"/>
<path opacity="0.3" d="M68.0955 47.5257C68.0955 47.5257 84.7276 43.5011 96.2978 49.0115C107.868 54.5219 128.357 48.9706 128.357 48.9706" fill="white"/>
<path opacity="0.3" d="M83.7976 53.7776C81.7884 53.7686 79.7846 53.5687 77.8133 53.1806C74.4102 52.5167 71.1072 51.4163 67.9865 49.9066L68.2094 49.4795C71.2925 50.9698 74.5555 52.0557 77.9174 52.7101C82.9783 53.687 90.2506 53.9231 96.1533 49.5004C102.195 44.9731 110.659 44.9858 116.693 45.7937C120.695 46.3375 124.63 47.2944 128.434 48.6491L128.261 49.0987C128.057 49.0208 107.772 41.3965 96.4426 49.8856C92.4769 52.8572 87.9199 53.7776 83.7976 53.7776Z" fill="white"/>
<path opacity="0.3" d="M83.8795 51.8383C75.531 51.8383 68.1173 48.846 68.0061 48.8003L68.1897 48.3549C68.3547 48.4229 84.8432 55.0736 96.1752 48.3704C107.703 41.5505 128.212 47.6381 128.417 47.7004L128.278 48.1613C128.074 48.0997 107.766 42.0732 96.4207 48.7848C92.5489 51.0753 88.0948 51.8383 83.8795 51.8383Z" fill="white"/>
<path opacity="0.3" d="M68.0979 48.2072C68.0979 48.2072 84.7277 53.7177 96.2979 48.2072C107.868 42.6968 128.347 47.6866 128.347 47.6866" fill="white"/>
<path d="M132.64 62.95V69.9705C132.64 69.9705 133.202 77.8335 136.294 81.765C136.294 81.765 141.354 88.9259 142.057 87.3814L141.191 82.2965L138.262 79.5184L136.716 70.8129L136.294 62.95H132.64Z" fill="#FFB8B8"/>
<path d="M163.7 126.416V131.611L159.484 133.155V127.118L163.7 126.416Z" fill="#FFB8B8"/>
<path d="M155.127 125.854L157.938 132.172L154.003 133.857L153.159 127.679L155.127 125.854Z" fill="#FFB8B8"/>
<path d="M162.154 77.4123C162.154 77.4123 167.776 128.101 165.668 128.241C163.56 128.381 159.484 131.049 159.484 129.224C159.484 127.398 156.251 103.669 156.251 103.669L153.16 91.4533V108.303L156.392 127.398C156.392 127.398 153.3 131.47 151.051 129.083L146.273 110.409C146.273 110.409 139.948 82.0458 140.23 79.7993C140.23 79.7993 154.706 67.4431 162.154 77.4123Z" fill="#2F2E41"/>
<path d="M161.03 131.892C161.03 131.892 162.154 129.505 164.684 131.049L166.792 133.577C166.792 133.577 172.227 138.073 168.371 139.037C164.395 140.03 162.014 138.973 162.014 138.973C162.014 138.973 161.311 138.552 160.749 138.552C160.187 138.552 158.922 137.569 158.922 137.288C158.922 137.008 159.343 132.032 159.343 132.032C159.503 131.954 159.681 131.926 159.857 131.951C160.032 131.977 160.196 132.053 160.327 132.172C160.749 132.594 161.03 131.892 161.03 131.892Z" fill="#2F2E41"/>
<path d="M152.738 131.049C152.738 131.049 155.408 128.943 156.673 131.33C156.673 131.33 157.47 131.611 157.563 131.33C157.657 131.049 158.36 130.909 158.36 132.453C158.36 133.998 159.123 137.85 158.42 137.99C157.717 138.131 157.015 138.552 157.155 139.114C157.296 139.675 156.392 139.755 153.16 139.614C149.927 139.474 149.786 138.21 149.786 138.21C149.786 138.21 149.786 136.385 150.63 135.402C151.473 134.419 152.738 131.049 152.738 131.049Z" fill="#2F2E41"/>
<path d="M147.538 39.0801C147.538 39.0801 146.835 44.2753 151.332 46.1007C155.83 47.926 141.354 53.9637 139.948 50.4534C138.543 46.9431 140.23 45.8198 140.23 45.8198C140.23 45.8198 141.635 44.4157 140.37 40.6247L147.538 39.0801Z" fill="#FFB8B8"/>
<path d="M143.04 42.7308C146.456 42.7308 149.224 39.9648 149.224 36.5528C149.224 33.1407 146.456 30.3747 143.04 30.3747C139.625 30.3747 136.857 33.1407 136.857 36.5528C136.857 39.9648 139.625 42.7308 143.04 42.7308Z" fill="#FFB8B8"/>
<path d="M150.208 47.7856C150.208 47.7856 145.992 50.0322 141.916 48.3473C137.84 46.6623 137.981 53.9637 137.981 53.9637L140.089 59.4397L154.706 58.0356L153.722 49.611L150.208 47.7856Z" fill="#F2F2F2"/>
<path d="M148.113 42.9812C148.862 43.1399 149.565 43.4648 150.171 43.9319C150.777 44.3989 151.27 44.9962 151.614 45.6794L158.36 47.7856L160.046 50.1726L158.078 67.4431C158.078 67.4431 161.733 70.9533 161.733 72.9191C161.733 74.8848 166.23 81.6246 163.981 80.7821C161.733 79.9396 157.657 76.991 157.657 76.991C157.657 76.991 147.397 77.4122 144.165 80.2205C140.932 83.0287 139.667 82.1862 139.667 82.1862C139.667 82.1862 136.294 67.5835 136.154 65.3369C136.013 63.0903 132.078 49.6109 132.078 49.6109L139.105 45.6794L140.895 43.6505L145.851 51.5767L150.349 46.1007C150.349 46.1007 148.127 44.3548 148.113 42.9812Z" fill="#49B575"/>
<path d="M162.154 60.9842L162.998 65.4773C162.998 65.4773 166.792 79.5184 166.23 84.2924C166.23 84.2924 166.652 94.9636 164.262 93.6999C161.873 92.4362 163.138 84.7136 163.138 84.7136L159.765 70.8129L157.938 62.6691L162.154 60.9842Z" fill="#FFB8B8"/>
<path d="M158.641 49.3301L160.046 50.1726C160.046 50.1726 165.387 61.265 164.122 62.1075C162.857 62.9499 157.376 64.7753 157.376 64.7753L158.641 49.3301Z" fill="#3F3D56"/>
<path d="M135.451 49.611L132.148 49.5407L131.375 50.8746L132.359 64.4946L137.419 65.6178L135.451 49.611Z" fill="#3F3D56"/>
<path d="M148.076 31.3277L149.191 30.9228C149.191 30.9228 146.86 28.5944 143.618 28.7969L144.53 27.8858C144.53 27.8858 142.3 27.0759 140.274 29.2018C139.208 30.3193 137.976 31.6329 137.207 33.1127H136.014L136.512 34.1081L134.768 35.1036L136.558 34.9248C136.388 35.7842 136.447 36.673 136.727 37.5029L137.132 38.6164C137.132 38.6164 138.754 35.377 138.754 34.9721V35.9844C138.754 35.9844 139.868 35.0733 139.868 34.4659L140.476 35.1745L140.78 34.061L144.53 35.1745L143.922 34.2634L146.252 34.5671L145.34 33.4536C145.34 33.4536 147.975 34.7696 148.076 35.8832C148.177 36.9967 148.873 38.4483 148.873 38.4483L149.716 37.4654C149.716 37.4654 151.015 32.8462 148.076 31.3277Z" fill="#2F2E41"/>
<path d="M148.24 37.8866C148.512 37.8866 148.732 37.3209 148.732 36.6229C148.732 35.925 148.512 35.3593 148.24 35.3593C147.969 35.3593 147.749 35.925 147.749 36.6229C147.749 37.3209 147.969 37.8866 148.24 37.8866Z" fill="#FFB8B8"/>
<path opacity="0.3" d="M68.0979 47.5257C68.0979 47.5257 84.7277 38.8562 96.2979 47.5257C107.868 56.1951 128.347 48.3448 128.347 48.3448" fill="white"/>
<path d="M98.2865 135.743C99.7509 135.743 100.938 134.557 100.938 133.094C100.938 131.631 99.7509 130.445 98.2865 130.445C96.8221 130.445 95.635 131.631 95.635 133.094C95.635 134.557 96.8221 135.743 98.2865 135.743Z" fill="white"/>
</svg>
